<?xml version="1.0" encoding="UTF-8"?>
<svg version="1.1" xmlns="http://www.w3.org/2000/svg" width="2000" height="2000">
<path d="M0 0 C1.37678012 0.002224 2.75356031 0.00440044 4.13034058 0.00653076 C24.73991859 0.05067516 45.11426821 0.47934168 65.5625 3.3125 C66.28473755 3.41195923 67.0069751 3.51141846 67.75109863 3.6138916 C163.64443102 16.93027184 253.71853527 54.60385538 334.5625 120.3125 C335.35261475 120.97306396 335.35261475 120.97306396 336.15869141 121.64697266 C349.55706568 132.88721953 362.175414 144.8456656 374.5625 157.1875 C375.44687744 158.06720459 376.33125488 158.94690918 377.24243164 159.85327148 C382.22374309 164.84688597 386.97777877 169.95472424 391.5625 175.3125 C392.58391129 176.46924024 393.60731 177.624229 394.6328125 178.77734375 C424.78754668 212.9458647 449.22048732 251.64130062 469.5625 292.3125 C470.01431641 293.20291992 470.46613281 294.09333984 470.93164062 295.01074219 C495.60135307 343.76279297 510.44018082 397.70457047 517.8125 451.6875 C518.03921387 453.33987671 518.03921387 453.33987671 518.27050781 455.02563477 C521.07645579 476.90157797 521.93874558 498.70904869 521.875 520.75 C521.87317719 522.0639978 521.87135437 523.37799561 521.86947632 524.73181152 C521.83032763 545.08737124 521.27141356 565.12402044 518.5625 585.3125 C518.47528687 585.97092896 518.38807373 586.62935791 518.29821777 587.30773926 C511.9428606 635.02000532 499.87049005 682.15125818 480.5625 726.3125 C480.21010254 727.1286377 479.85770508 727.94477539 479.49462891 728.78564453 C461.36621216 770.64911947 437.96887605 809.62704355 409.5625 845.3125 C408.88936768 846.16231445 408.88936768 846.16231445 408.20263672 847.02929688 C405.70710602 850.16815135 403.15137034 853.2503953 400.5625 856.3125 C400.13614258 856.82232422 399.70978516 857.33214844 399.27050781 857.85742188 C388.47845522 870.75320323 376.9838443 882.95761416 365.125 894.875 C364.48723633 895.51743652 363.84947266 896.15987305 363.19238281 896.82177734 C359.3810008 900.62026296 355.44935053 904.22576851 351.37719727 907.74291992 C349.13164676 909.68515646 346.9412124 911.68432509 344.75 913.6875 C339.49829043 918.41483313 334.08982593 922.9124471 328.5625 927.3125 C327.61141357 928.07240234 327.61141357 928.07240234 326.64111328 928.84765625 C252.19764439 988.13612383 163.15581822 1025.76574168 68.9375 1038.625 C67.32681641 1038.84591309 67.32681641 1038.84591309 65.68359375 1039.07128906 C44.22297165 1041.79533354 22.7420325 1042.69295292 1.125 1042.625 C-0.09051544 1042.62317719 -1.30603088 1042.62135437 -2.55838013 1042.61947632 C-22.66924031 1042.56897504 -42.48223849 1041.82670458 -62.4375 1039.3125 C-63.10539551 1039.23 -63.77329102 1039.1475 -64.46142578 1039.0625 C-96.36677245 1035.10383136 -127.85574904 1028.24775644 -158.4375 1018.3125 C-159.60829102 1017.93367676 -160.77908203 1017.55485352 -161.98535156 1017.16455078 C-218.90271891 998.56544854 -272.37885002 970.39092623 -319.4375 933.3125 C-320.28441406 932.64863281 -321.13132812 931.98476562 -322.00390625 931.30078125 C-332.69274309 922.8423598 -342.96843065 913.95717717 -352.95361328 904.68310547 C-354.43844113 903.31163072 -355.93392366 901.9528739 -357.43359375 900.59765625 C-366.58603761 892.31496217 -375.59678226 883.83744931 -383.60546875 874.42578125 C-385.48622142 872.25629896 -387.42620865 870.1482322 -389.37988281 868.04443359 C-394.99094168 861.9954291 -400.30875753 855.77987651 -405.4375 849.3125 C-406.17709961 848.38969238 -406.17709961 848.38969238 -406.93164062 847.44824219 C-466.47068265 773.04243815 -503.87896639 683.9920944 -516.75 589.6875 C-516.89727539 588.61371094 -517.04455078 587.53992187 -517.19628906 586.43359375 C-519.94438593 564.78348167 -520.81707766 543.11990628 -520.75 521.3125 C-520.74817719 520.07169678 -520.74635437 518.83089355 -520.74447632 517.55249023 C-520.69543367 497.63765997 -520.02274343 478.0693603 -517.4375 458.3125 C-517.3066803 457.2981488 -517.3066803 457.2981488 -517.17321777 456.26330566 C-509.35729 395.93641635 -491.68087149 338.65183211 -464.4375 284.3125 C-463.98552246 283.4059668 -463.53354492 282.49943359 -463.06787109 281.56542969 C-445.87325461 247.2766399 -423.93054329 215.75546208 -399.4375 186.3125 C-398.94282227 185.71727539 -398.44814453 185.12205078 -397.93847656 184.50878906 C-387.08238113 171.506131 -375.44638234 159.25157407 -363.5 147.25 C-362.81462158 146.55994873 -362.12924316 145.86989746 -361.4230957 145.15893555 C-357.48688902 141.2351414 -353.44264008 137.49508235 -349.23461914 133.86450195 C-346.99382426 131.92933919 -344.81013635 129.93512027 -342.625 127.9375 C-337.3733995 123.21026506 -331.96603209 118.7108814 -326.4375 114.3125 C-325.78217285 113.78994629 -325.1268457 113.26739258 -324.45166016 112.72900391 C-314.06352514 104.47273587 -303.48943349 96.65406857 -292.4375 89.3125 C-291.70402344 88.81959473 -290.97054687 88.32668945 -290.21484375 87.81884766 C-223.73074896 43.20082042 -148.77670463 15.30691191 -69.5625 4.0625 C-67.98154541 3.83578613 -67.98154541 3.83578613 -66.36865234 3.60449219 C-44.29561782 0.65342706 -22.24835796 -0.0635187 0 0 Z " fill="#60A8FF" transform="translate(999.4375,478.6875)"/>
<path d="M0 0 C1.36799545 -0.00262956 1.36799545 -0.00262956 2.76362717 -0.00531223 C5.84800052 -0.00999849 8.93232727 -0.00750001 12.01670265 -0.00507832 C14.23899615 -0.00694497 16.46128931 -0.00924508 18.68358195 -0.01194364 C24.81260284 -0.01808608 30.94161014 -0.01792518 37.07063341 -0.01674926 C42.99470989 -0.01656674 48.91878163 -0.02105102 54.84285627 -0.02536215 C68.46151033 -0.03504562 82.08016062 -0.03784676 95.69881772 -0.03841921 C106.2135795 -0.0388783 116.72833981 -0.0409343 127.24310112 -0.04411983 C130.26697973 -0.04501734 133.29085835 -0.04590716 136.31473696 -0.04679471 C137.06642752 -0.04701576 137.81811807 -0.04723681 138.59258713 -0.04746456 C159.74339576 -0.05362089 180.89420387 -0.0575649 202.04501343 -0.05712128 C203.24176974 -0.05709791 203.24176974 -0.05709791 204.46270294 -0.05707407 C208.50671071 -0.05699096 212.55071848 -0.05689192 216.59472625 -0.05678936 C217.39791772 -0.05676942 218.2011092 -0.05674947 219.02863981 -0.05672892 C220.65288938 -0.05668848 222.27713894 -0.05664669 223.90138851 -0.05660353 C249.17726924 -0.05599065 274.45313655 -0.06349882 299.72901344 -0.07717609 C328.1092991 -0.09252681 356.48957594 -0.10114293 384.86986601 -0.10021287 C387.89437334 -0.10013824 390.91888066 -0.10008953 393.94338799 -0.10005856 C394.68812948 -0.1000469 395.43287097 -0.10003525 396.20018039 -0.10002324 C408.20038929 -0.09999243 420.20058657 -0.10638633 432.20079202 -0.11499082 C444.25507008 -0.12345549 456.3093311 -0.12446657 468.36361049 -0.1178815 C474.89777284 -0.1145047 481.43190141 -0.1146015 487.96606064 -0.12323475 C493.94186092 -0.13104932 499.91758515 -0.12972037 505.89338346 -0.12095062 C508.06093267 -0.11940443 510.22848742 -0.1212734 512.39603011 -0.12681069 C515.33159299 -0.13381622 518.26688502 -0.12862023 521.20243835 -0.12025452 C522.05318794 -0.1252227 522.90393752 -0.13019088 523.78046739 -0.13530961 C528.05151552 -0.10939788 531.33177638 0.14786606 535.22706032 2.12863445 C535.22706032 2.78863445 535.22706032 3.44863445 535.22706032 4.12863445 C533.73596798 5.45844538 532.17999318 6.71562176 530.60206032 7.94113445 C525.94740155 11.65648548 521.55618788 15.54031126 517.22706032 19.62863445 C512.31474378 24.25559096 507.27576833 28.60140117 502.00440407 32.8200407 C498.80263362 35.48142795 495.76469622 38.28324273 492.72706032 41.12863445 C488.85233268 44.75814053 484.93806289 48.24611404 480.78956032 51.56613445 C476.4145406 55.07506584 472.30685123 58.78707951 468.22706032 62.62863445 C463.31397917 67.25482035 458.2758431 71.60134133 453.00440407 75.8200407 C449.80263362 78.48142795 446.76469622 81.28324273 443.72706032 84.12863445 C439.85233268 87.75814053 435.93806289 91.24611404 431.78956032 94.56613445 C427.4145406 98.07506584 423.30685123 101.78707951 419.22706032 105.62863445 C414.31397917 110.25482035 409.2758431 114.60134133 404.00440407 118.8200407 C400.80263362 121.48142795 397.76469622 124.28324273 394.72706032 127.12863445 C390.85233268 130.75814053 386.93806289 134.24611404 382.78956032 137.56613445 C378.4145406 141.07506584 374.30685123 144.78707951 370.22706032 148.62863445 C365.31397917 153.25482035 360.2758431 157.60134133 355.00440407 161.8200407 C351.80263362 164.48142795 348.76469622 167.28324273 345.72706032 170.12863445 C341.85233268 173.75814053 337.93806289 177.24611404 333.78956032 180.56613445 C329.4145406 184.07506584 325.30685123 187.78707951 321.22706032 191.62863445 C316.31397917 196.25482035 311.2758431 200.60134133 306.00440407 204.8200407 C302.80262454 207.4814355 299.76480078 210.28334213 296.72706032 213.12863445 C291.86119693 217.6836812 286.86438472 221.99377493 281.65674782 226.15988445 C279.53113021 227.88224985 277.50294943 229.66682832 275.47706032 231.50363445 C270.09940317 236.08036394 264.75347431 237.75807581 257.75440407 237.4528532 C248.49974638 236.26562509 242.92236625 230.40228277 236.48096657 224.20675945 C233.7008689 221.5400852 230.80629125 219.09030191 227.78956032 216.69113445 C222.76864084 212.66416701 218.10284215 208.33648742 213.42090797 203.92795086 C209.10479154 199.88594858 204.622024 196.13268028 200.00440407 192.4372282 C196.21888749 189.29061738 192.6520087 185.9317578 189.06055641 182.5675993 C185.73533709 179.47068742 182.33976961 176.53234453 178.78956032 173.69113445 C173.76864084 169.66416701 169.10284215 165.33648742 164.42090797 160.92795086 C160.10479154 156.88594858 155.622024 153.13268028 151.00440407 149.4372282 C147.21888749 146.29061738 143.6520087 142.9317578 140.06055641 139.5675993 C136.73533709 136.47068742 133.33976961 133.53234453 129.78956032 130.69113445 C124.76864084 126.66416701 120.10284215 122.33648742 115.42090797 117.92795086 C111.10479154 113.88594858 106.622024 110.13268028 102.00440407 106.4372282 C98.80263233 103.77583988 95.76471114 100.97401199 92.72706032 98.12863445 C88.8312975 94.47974996 84.89371747 90.97165008 80.72706032 87.62863445 C75.32269249 83.28936102 70.27750909 78.6246703 65.21143532 73.90207195 C60.59352271 69.59757932 55.81944425 65.4855104 51.01612282 61.3903532 C49.81543991 60.36580353 48.61492411 59.34105799 47.41456032 58.31613445 C46.80837868 57.79881756 46.20219704 57.28150066 45.57764626 56.7485075 C41.83635211 53.54361216 38.16590649 50.27654167 34.53956032 46.94113445 C31.08690335 43.77032704 27.57175065 40.74828414 23.91456032 37.81613445 C19.50338748 34.2607669 15.34899622 30.50912272 11.22706032 26.62863445 C6.21056086 21.9069422 1.092692 17.45019999 -4.28465843 13.1403532 C-7.87234006 10.23979427 -11.32907907 7.19751884 -14.77293968 4.12863445 C-10.51860936 -0.53087019 -5.95153553 -0.01429956 0 0 Z " fill="#FEFEFF" transform="translate(738.7729396820068,795.8713655471802)"/>
<path d="M0 0 C4.69693733 1.44721132 7.67733335 4.21084695 11.125 7.5625 C16.86490704 13.00065099 22.78469741 18.10544921 29 23 C29.7425 23.5878125 30.485 24.175625 31.25 24.78125 C41.5561124 32.74506413 52.05735383 35.03475471 65 34 C78.07686161 32.02519476 86.60321397 25.69759605 95.96875 16.81640625 C99.64533997 13.34946719 103.57005596 10.20988019 107.52734375 7.0703125 C110.12553784 4.98954093 110.12553784 4.98954093 112.56640625 2.1796875 C113.36949219 1.46039062 114.17257812 0.74109375 115 0 C118.12844374 0.32724962 119.90807618 1.49124088 122.21484375 3.5546875 C123.11058105 4.34504395 123.11058105 4.34504395 124.02441406 5.15136719 C124.65573242 5.72016602 125.28705078 6.28896484 125.9375 6.875 C127.28457645 8.06576041 128.63224307 9.25585346 129.98046875 10.4453125 C130.65513184 11.04375977 131.32979492 11.64220703 132.02490234 12.25878906 C134.90102736 14.79432968 137.81957161 17.27760346 140.75 19.75 C141.28439697 20.20181641 141.81879395 20.65363281 142.36938477 21.11914062 C145.67612318 23.90696611 149.0161842 26.65029692 152.375 29.375 C157.49813067 33.54221124 162.47594928 37.86312457 167.45263672 42.20263672 C171.08719203 45.36452443 174.75511868 48.46842941 178.5 51.5 C182.91668944 55.07541526 187.21780385 58.76599348 191.5 62.5 C196.65851311 66.99747977 201.88157094 71.38995452 207.19921875 75.69921875 C211.6799762 79.38006413 216.06159186 83.17513193 220.45703125 86.95703125 C223.81142628 89.84230575 227.18291989 92.70679062 230.5625 95.5625 C231.36083252 96.23708252 231.36083252 96.23708252 232.17529297 96.92529297 C233.2471334 97.83068442 234.31907326 98.73595817 235.39111328 99.64111328 C238.09572289 101.92546186 240.79772127 104.21289508 243.5 106.5 C244.58332099 107.41668126 245.66665432 108.33334793 246.75 109.25 C253.25 114.75 253.25 114.75 254.87548828 116.12548828 C255.95709521 117.04064413 257.03880069 117.9556835 258.12060547 118.87060547 C260.85617939 121.18443478 263.58992474 123.50036471 266.3203125 125.8203125 C271.30314347 130.05079624 276.29702715 134.2585368 281.375 138.375 C286.49813067 142.54221124 291.47594928 146.86312457 296.45263672 151.20263672 C300.08719203 154.36452443 303.75511868 157.46842941 307.5 160.5 C312.05175255 164.18931523 316.5068628 167.97944393 320.9375 171.8125 C321.8965625 172.64007812 321.8965625 172.64007812 322.875 173.484375 C326.02975952 176.22385832 329.09420257 178.99224476 332 182 C327.71247955 183.20336255 323.53633158 183.13799616 319.11404324 183.12584114 C318.20198161 183.12729458 317.28991998 183.12874802 316.35022011 183.13024551 C313.2716665 183.13391612 310.19316207 183.13041415 307.11460876 183.12698364 C304.89415176 183.12813504 302.67369496 183.12972269 300.45323855 183.13171089 C294.33401594 183.13590163 288.21480885 183.13381465 282.09558618 183.13072467 C276.17965172 183.12870116 270.26372062 183.13135595 264.34778662 183.13387203 C251.49760219 183.13914368 238.64742272 183.13867905 225.79723781 183.13579312 C214.55262031 183.13328009 203.30800464 183.13261969 192.06338692 183.13381577 C191.31824268 183.13389215 190.57309845 183.13396854 189.80537408 183.13404724 C186.78079541 183.13435856 183.75621675 183.13467696 180.73163808 183.135007 C152.34516075 183.13806764 123.95868658 183.13528988 95.57220974 183.1299101 C70.33646821 183.12516383 45.10073172 183.12558935 19.86499023 183.13037109 C-8.47023596 183.13572216 -36.80545935 183.13785109 -65.14068598 183.13475883 C-68.15952488 183.1344381 -71.17836378 183.13412526 -74.19720268 183.13381577 C-75.31222271 183.13369715 -75.31222271 183.13369715 -76.4497684 183.13357614 C-87.6897345 183.13243724 -98.92969857 183.13377158 -110.16966438 183.13629532 C-122.94541052 183.13914954 -135.72115091 183.1384505 -148.49689633 183.13301457 C-155.02068264 183.13037839 -161.54445869 183.12937111 -168.06824493 183.13266373 C-174.03216252 183.13562835 -179.99606025 183.13403106 -185.95997601 183.12868617 C-188.12544039 183.12756271 -190.29090643 183.12815162 -192.45636977 183.13056196 C-195.38423231 183.13357267 -198.31202554 183.13051436 -201.23988438 183.12584114 C-202.09399779 183.12818231 -202.94811121 183.13052347 -203.82810685 183.13293558 C-207.14150387 183.12225828 -209.83421923 183.05526026 -213 182 C-211.49775154 178.26107049 -209.39834702 176.45906395 -206.25 174 C-201.79884227 170.45534437 -197.43317675 166.84208126 -193.125 163.125 C-191.93374707 162.10008218 -190.74234021 161.07534326 -189.55078125 160.05078125 C-188.96119629 159.54369629 -188.37161133 159.03661133 -187.76416016 158.51416016 C-181.11480163 152.80708548 -174.43124843 147.14439496 -167.625 141.625 C-162.50186933 137.45778876 -157.52405072 133.13687543 -152.54736328 128.79736328 C-148.06268483 124.89590946 -143.49527292 121.11522093 -138.875 117.375 C-135.36452247 114.4750403 -131.93170065 111.49238805 -128.5 108.5 C-123.34148689 104.00252023 -118.11842906 99.61004548 -112.80078125 95.30078125 C-108.92833207 92.11964796 -105.13271217 88.85246445 -101.33398438 85.58398438 C-95.78892833 80.81293833 -90.20716321 76.08651595 -84.61767578 71.36767578 C-82.97091021 69.97540583 -81.32689933 68.57994527 -79.68359375 67.18359375 C-74.69973752 62.95146367 -69.70440728 58.74262602 -64.625 54.625 C-59.50186933 50.45778876 -54.52405072 46.13687543 -49.54736328 41.79736328 C-45.06268483 37.89590946 -40.49527292 34.11522093 -35.875 30.375 C-32.36452344 27.4750411 -28.93167813 24.49241302 -25.5 21.5 C-20.20389405 16.88193991 -14.84684956 12.36891624 -9.38671875 7.9453125 C-6.20700239 5.35366152 -3.09978033 2.68647628 0 0 Z " fill="#FEFEFF" transform="translate(940,1021)"/>
<path d="M0 0 C1.08208438 3.24625314 1.12643868 5.59287436 1.12863445 9.00866508 C1.1318589 10.27254393 1.13508335 11.53642278 1.1384055 12.83860099 C1.13693422 14.24908004 1.13536649 15.65955899 1.13371277 17.07003784 C1.13557995 18.56224186 1.13788028 20.05444539 1.14057809 21.54664814 C1.14671395 25.65759231 1.1465604 29.7685162 1.14538372 33.87946391 C1.14518016 38.30899926 1.15069415 42.73852801 1.15544128 47.1680603 C1.16375816 55.85022407 1.16649659 64.53238104 1.16705366 73.21454845 C1.16752833 80.26964182 1.1695806 87.32473294 1.17275429 94.37982559 C1.18156367 114.36895925 1.18617322 134.35808753 1.18542381 154.34722315 C1.18538386 155.42550572 1.1853439 156.50378829 1.18530273 157.61474609 C1.18526185 158.69434058 1.18522097 159.77393508 1.18517885 160.88624455 C1.18477229 178.38757236 1.19434356 195.88887866 1.2084411 213.39020024 C1.22279203 231.34734795 1.22971199 249.30448517 1.22884732 267.26163876 C1.22851491 277.34847555 1.23128134 287.43528979 1.24202538 297.52212143 C1.25111351 306.10959001 1.25331955 314.69702583 1.24651595 323.28449713 C1.2432422 327.66783711 1.24322476 332.05111417 1.2518692 336.43444824 C1.25969751 340.44511211 1.25834058 344.45566277 1.24958507 348.46632375 C1.24804195 349.91920759 1.2498966 351.37209974 1.25544515 352.82497381 C1.26247734 354.79652209 1.25603323 356.76810476 1.24888897 358.73965263 C1.24921502 360.38387052 1.24921502 360.38387052 1.24954766 362.06130493 C0.99350057 365.07653786 0.27384784 367.27135543 -1 370 C-4.88350268 369.43384016 -6.75770314 367.66155353 -9.5625 365 C-13.04224641 361.77424968 -16.55910086 358.66965927 -20.25 355.6875 C-24.5645068 352.19567458 -28.79713492 348.62427996 -33 345 C-37.10226498 341.46385091 -41.22802093 337.97136492 -45.4375 334.5625 C-50.54307465 330.41939009 -55.49800053 326.1176955 -60.45288086 321.79711914 C-64.08737851 318.63534162 -67.75520843 315.53149794 -71.5 312.5 C-75.91668944 308.92458474 -80.21780385 305.23400652 -84.5 301.5 C-89.65851311 297.00252023 -94.88157094 292.61004548 -100.19921875 288.30078125 C-104.6799762 284.61993587 -109.06159186 280.82486807 -113.45703125 277.04296875 C-118.40558716 272.78648075 -123.3947854 268.57832994 -128.38232422 264.36767578 C-130.02908979 262.97540583 -131.67310067 261.57994527 -133.31640625 260.18359375 C-138.30026248 255.95146367 -143.29559272 251.74262602 -148.375 247.625 C-153.49733524 243.45843577 -158.47417378 239.13798719 -163.45043945 234.79956055 C-167.96215363 230.87510903 -172.55325555 227.06573217 -177.19921875 223.30078125 C-180.46329894 220.61940994 -183.67247626 217.87933673 -186.875 215.125 C-187.46385986 214.61864014 -188.05271973 214.11228027 -188.65942383 213.59057617 C-189.85010329 212.56657556 -191.04077712 211.5425684 -192.23144531 210.51855469 C-200.36994414 203.53050075 -208.57240023 196.63935061 -217 190 C-213.11502333 185.02237364 -208.8144747 181.06740104 -204 177 C-201.72636843 175.06576975 -199.45650079 173.1271593 -197.1875 171.1875 C-196.58196289 170.6706665 -195.97642578 170.15383301 -195.35253906 169.62133789 C-191.61041223 166.41615531 -187.9394472 163.14846003 -184.3125 159.8125 C-180.83863691 156.62263156 -177.30089975 153.57951106 -173.625 150.625 C-168.18613395 146.23655873 -163.09271096 141.53553588 -157.984375 136.7734375 C-153.36646239 132.46894486 -148.59238393 128.35687595 -143.7890625 124.26171875 C-142.58837959 123.23716908 -141.38786379 122.21242354 -140.1875 121.1875 C-139.58131836 120.67018311 -138.97513672 120.15286621 -138.35058594 119.61987305 C-134.6092918 116.41497771 -130.93884617 113.14790722 -127.3125 109.8125 C-123.85984304 106.64169258 -120.34469034 103.61964969 -116.6875 100.6875 C-111.63163433 96.61251555 -106.91812777 92.24768006 -102.19433594 87.79980469 C-97.87808563 83.75760202 -93.39514634 80.004192 -88.77734375 76.30859375 C-85.5755733 73.6472065 -82.5376359 70.84539173 -79.5 68 C-75.62527236 64.37049392 -71.71100257 60.88252041 -67.5625 57.5625 C-63.18748028 54.05356861 -59.07979091 50.34155495 -55 46.5 C-50.08691885 41.8738141 -45.04878279 37.52729313 -39.77734375 33.30859375 C-36.57556942 30.64720327 -33.53768068 27.84534915 -30.5 25 C-25.72888936 20.53203979 -20.82089229 16.33243215 -15.71484375 12.24609375 C-11.72947387 8.94884529 -7.977892 5.41818514 -4.21484375 1.87109375 C-2 0 -2 0 0 0 Z " fill="#FEFEFF" transform="translate(1291,816)"/>
<path d="M0 0 C2.86724963 1.31467778 5.04544591 2.75626529 7.375 4.875 C11.1394809 8.24690933 14.96410177 11.53738899 18.8125 14.8125 C23.17358453 18.53291423 27.46765409 22.30620906 31.6875 26.1875 C35.14015696 29.35830742 38.65530966 32.38035031 42.3125 35.3125 C47.36836567 39.38748445 52.08187223 43.75231994 56.80566406 48.20019531 C61.12191437 52.24239798 65.60485366 55.995808 70.22265625 59.69140625 C74.00817282 62.83801707 77.57505162 66.19687666 81.16650391 69.56103516 C84.49172323 72.65794703 87.88729071 75.59628992 91.4375 78.4375 C96.45841948 82.46446744 101.12421817 86.79214703 105.80615234 91.20068359 C110.12226878 95.24268587 114.60503631 98.99595417 119.22265625 102.69140625 C123.00817282 105.83801707 126.57505162 109.19687666 130.16650391 112.56103516 C133.49172323 115.65794703 136.88729071 118.59628992 140.4375 121.4375 C145.45841948 125.46446744 150.12421817 129.79214703 154.80615234 134.20068359 C159.12226878 138.24268587 163.60503631 141.99595417 168.22265625 145.69140625 C172.00817282 148.83801707 175.57505162 152.19687666 179.16650391 155.56103516 C182.49172323 158.65794703 185.88729071 161.59628992 189.4375 164.4375 C194.53690543 168.52749233 199.30645145 172.90910507 204.05444336 177.39624023 C207.59978771 180.74008031 211.22539227 183.91635677 215 187 C211.29326555 190.80391475 207.42121321 194.31175254 203.375 197.75 C202.7574585 198.27730713 202.13991699 198.80461426 201.50366211 199.34790039 C197.89183633 202.42236038 194.24641903 205.44949371 190.5625 208.4375 C186.12760683 212.03636029 181.80432214 215.74732064 177.5 219.5 C172.34144505 223.99743351 167.11843114 228.38995284 161.80078125 232.69921875 C157.92833207 235.88035204 154.13271217 239.14753555 150.33398438 242.41601562 C144.7858128 247.18974231 139.20125646 251.91931007 133.60888672 256.64111328 C130.90427711 258.92546186 128.20227873 261.21289508 125.5 263.5 C124.41667901 264.41668126 123.33334568 265.33334793 122.25 266.25 C121.71375 266.70375 121.1775 267.1575 120.625 267.625 C119 269 117.375 270.375 115.75 271.75 C114.9453833 272.4308667 114.9453833 272.4308667 114.12451172 273.12548828 C113.04290479 274.04064413 111.96119931 274.9556835 110.87939453 275.87060547 C108.14382061 278.18443478 105.41007526 280.50036471 102.6796875 282.8203125 C97.69685653 287.05079624 92.70297285 291.2585368 87.625 295.375 C82.50266476 299.54156423 77.52582622 303.86201281 72.54956055 308.20043945 C68.03784637 312.12489097 63.44674445 315.93426783 58.80078125 319.69921875 C54.92833207 322.88035204 51.13271217 326.14753555 47.33398438 329.41601562 C41.7858128 334.18974231 36.20125646 338.91931007 30.60888672 343.64111328 C28.44617962 345.46776392 26.28513427 347.2963727 24.12451172 349.12548828 C23.04990902 350.03471779 21.97472259 350.94325789 20.89892578 351.85107422 C18.04043817 354.26457987 15.19453953 356.69130136 12.36328125 359.13671875 C11.76902344 359.6471875 11.17476562 360.15765625 10.5625 360.68359375 C9.41713659 361.66789043 8.27506464 362.65603339 7.13671875 363.6484375 C3.2249244 367 3.2249244 367 1 367 C-0.61335633 362.7327775 -1.24979942 359.21439278 -1.24888897 354.6606636 C-1.25578716 352.76878575 -1.25578716 352.76878575 -1.26282471 350.83868814 C-1.25781018 349.44675904 -1.25260794 348.05483061 -1.24723816 346.66290283 C-1.24882686 345.1783454 -1.25129107 343.69378869 -1.25455457 342.209234 C-1.26096538 338.13345104 -1.25490203 334.05776748 -1.24679029 329.98199105 C-1.24021114 325.58528594 -1.24516218 321.1885919 -1.24867249 316.79188538 C-1.25371394 308.18131131 -1.2480739 299.57077565 -1.23882218 290.96020636 C-1.22844146 280.93911052 -1.22850827 270.918023 -1.22899476 260.8969228 C-1.22949539 243.02323338 -1.22033286 225.14956186 -1.20581055 207.27587891 C-1.19171466 189.91812819 -1.18464013 172.56039323 -1.18530273 155.20263672 C-1.18534269 154.13301245 -1.18538265 153.06338819 -1.18542381 151.96135107 C-1.18546417 150.89360373 -1.18550452 149.82585639 -1.1855461 148.72575307 C-1.18623522 128.98005345 -1.18035111 109.23436054 -1.17139288 89.48866309 C-1.16837204 82.49691013 -1.1673128 75.50515839 -1.16686058 68.51340485 C-1.16617975 60.00058737 -1.1617331 51.4877812 -1.15252777 42.97496852 C-1.14789872 38.62845317 -1.14486835 34.28195233 -1.14612198 29.93543434 C-1.14721245 25.96208138 -1.14372677 21.98876058 -1.13647345 18.01541433 C-1.13465176 16.57276931 -1.13453789 15.13012099 -1.13624074 13.68747583 C-1.1382893 11.73697393 -1.13366257 9.78646833 -1.12863445 7.83597183 C-1.12793003 6.74942692 -1.1272256 5.66288201 -1.12649983 4.54341149 C-1 2 -1 2 0 0 Z " fill="#FEFEFF" transform="translate(709,818)"/>
</svg>
