<?xml version="1.0" encoding="UTF-8"?>
<svg version="1.1" xmlns="http://www.w3.org/2000/svg" width="2000" height="2000">
<path d="M0 0 C1.23375366 0.00149048 2.46750732 0.00298096 3.73864746 0.0045166 C24.32876292 0.04897623 44.61653007 0.89913698 65.0625 3.3125 C66.3009668 3.45171875 67.53943359 3.5909375 68.81542969 3.734375 C121.1424233 9.73842845 172.83366716 24.23970839 221.0625 45.3125 C222.12549316 45.77591797 223.18848633 46.23933594 224.28369141 46.71679688 C274.86715981 68.97443892 323.13519097 98.9892018 363.953125 136.3828125 C365.90039502 138.16420396 367.87774471 139.9000977 369.875 141.625 C382.99262464 153.08980393 396.14687696 165.04300903 407.40234375 178.37109375 C409.51952462 180.84694997 411.73031829 183.22911268 413.9375 185.625 C418.85827302 191.0274752 423.4895049 196.61487581 428.0625 202.3125 C428.98639449 203.44448786 429.9109029 204.57597487 430.8359375 205.70703125 C468.63512055 252.14261788 498.82847658 306.01490262 519.0625 362.3125 C519.72548096 364.14965576 519.72548096 364.14965576 520.40185547 366.02392578 C542.32496267 427.21815593 553.56941524 493.26643038 552.0625 558.3125 C552.04461426 559.20678711 552.02672852 560.10107422 552.00830078 561.02246094 C550.15264747 645.13638105 529.76388903 726.08261452 492.0625 801.3125 C491.5454248 802.34922852 491.02834961 803.38595703 490.49560547 804.45410156 C473.57482785 838.20749905 452.48539944 870.48051075 428.0625 899.3125 C427.17015282 900.37855475 426.27824952 901.44498115 425.38671875 902.51171875 C420.48196237 908.36314173 415.50485543 914.13438438 410.36108398 919.77832031 C408.92843999 921.35780461 407.50351105 922.94436444 406.09057617 924.54150391 C400.46012488 930.89363579 394.58081339 936.94899177 388.5690918 942.9362793 C386.99475845 944.5052236 385.42588411 946.07948558 383.85742188 947.65429688 C378.43106454 953.08460633 372.91644455 958.34112335 367.0625 963.3125 C365.87066452 964.35740353 364.68054455 965.40426718 363.4921875 966.453125 C355.78740375 973.2075484 347.95681433 979.73302322 339.82080078 985.96191406 C338.09959539 987.28400629 336.39142412 988.62163636 334.68359375 989.9609375 C306.2608761 1011.99824527 275.14544719 1030.20858953 243.0625 1046.3125 C241.58330078 1047.05910889 241.58330078 1047.05910889 240.07421875 1047.82080078 C168.32750841 1083.82911044 87.91990247 1100.34577074 8.0625 1102.3125 C6.96832764 1102.33957031 6.96832764 1102.33957031 5.85205078 1102.3671875 C1.58597344 1102.45585629 -2.67242672 1102.41130849 -6.9375 1102.3125 C-7.83178711 1102.29461426 -8.72607422 1102.27672852 -9.64746094 1102.25830078 C-92.96716316 1100.42016886 -173.77190544 1080.20895373 -374.25439453 954.99487305 C-375.96881059 953.28120304 -377.75376532 951.71361252 -379.59765625 950.140625 C-384.08862546 946.23518852 -388.30436037 942.09342138 -392.5 937.875 C-393.21607422 937.16279297 -393.93214844 936.45058594 -394.66992188 935.71679688 C-398.73251859 931.6468069 -402.61775636 927.47921142 -406.37182617 923.12329102 C-408.46675257 920.70038923 -410.6391897 918.3525901 -412.8125 916 C-417.73327302 910.5975248 -422.3645049 905.01012419 -426.9375 899.3125 C-427.86139449 898.18051214 -428.7859029 897.04902513 -429.7109375 895.91796875 C-451.3409582 869.35062163 -469.61173187 840.3850381 -485.9375 810.3125 C-486.40027344 809.46751953 -486.86304688 808.62253906 -487.33984375 807.75195312 C-522.80628596 742.73014241 -543.08819263 669.00304017 -548.9375 595.3125 C-549.07889404 593.61818848 -549.07889404 593.61818848 -549.22314453 591.88964844 C-550.20069049 578.63069771 -550.18110272 565.35159907 -550.1875 552.0625 C-550.18817474 550.79961151 -550.18884949 549.53672302 -550.18954468 548.23556519 C-550.17195854 527.44267183 -549.46737641 506.95174565 -546.9375 486.3125 C-546.855 485.62397949 -546.7725 484.93545898 -546.6875 484.22607422 C-536.7790207 401.92853171 -508.23399825 322.27879364 -419.35107422 193.96875 C-417.90100213 192.26973635 -416.46690966 190.55821849 -415.03515625 188.84375 C-409.42674377 182.16231122 -403.61264372 175.83587335 -397.38256836 169.72802734 C-394.6614687 167.0570042 -392.04925763 164.38734194 -389.625 161.4375 C-387.06045435 158.32340885 -384.14378945 155.80298589 -381.07421875 153.1953125 C-378.76001743 151.15610768 -376.60154323 149.01006542 -374.4375 146.8125 C-370.42977442 142.76394869 -366.26884562 139.00858159 -361.9375 135.3125 C-360.88481352 134.39652605 -359.83278457 133.47979612 -358.78125 132.5625 C-351.0498282 125.84108779 -343.14371101 119.4457433 -334.9375 113.3125 C-334.23496094 112.78398438 -333.53242187 112.25546875 -332.80859375 111.7109375 C-308.13628905 93.1749693 -282.27150202 76.65032894 -254.9375 62.3125 C-253.91398437 61.77012695 -252.89046875 61.22775391 -251.8359375 60.66894531 C-196.14413859 31.3155732 -135.19901039 13.05837651 -72.9375 4.5 C-72.22713593 4.40063141 -71.51677185 4.30126282 -70.78488159 4.19888306 C-47.28128539 0.95553382 -23.70707431 -0.07161286 0 0 Z " fill="#5883F2" transform="translate(997.9375,447.6875)"/>
<path d="M0 0 C0.9687204 -0.00078552 1.9374408 -0.00157104 2.93551636 -0.00238037 C23.2213568 0.01706934 43.25846434 1.6636092 63.41333008 3.83911133 C66.91413253 4.21667883 70.41625469 4.57415223 73.9206543 4.91674805 C74.82118027 5.00485748 75.72170624 5.09296692 76.64952087 5.18374634 C78.35922807 5.35014758 80.06906903 5.51518272 81.77906799 5.67855835 C98.36429569 7.30179569 98.36429569 7.30179569 100.4375 9.375 C100.53304399 10.80446471 100.55938438 12.23862665 100.55775452 13.67127991 C100.55981651 15.06167732 100.55981651 15.06167732 100.56192017 16.48016357 C100.55832489 17.50514954 100.55472961 18.5301355 100.55102539 19.58618164 C100.55117142 20.65922043 100.55131744 21.73225922 100.5514679 22.83781433 C100.55076824 26.40361516 100.54297338 29.96936449 100.53515625 33.53515625 C100.53329226 35.99995393 100.53186827 38.46475199 100.53086853 40.92955017 C100.52704187 47.43153905 100.51721032 53.93350575 100.50616455 60.43548584 C100.49541748 67.06440817 100.49137159 73.69333693 100.48632812 80.32226562 C100.47558819 93.33985324 100.45870097 106.35742544 100.4375 119.375 C99.62112061 119.38086624 98.80474121 119.38673248 97.96362305 119.39277649 C90.19828776 119.45113788 82.43325762 119.52345456 74.66819763 119.61071491 C70.67790824 119.6550835 66.68771314 119.69440894 62.69726562 119.72143555 C58.8326137 119.74780866 54.96833147 119.78843809 51.10391235 119.83818626 C49.64349026 119.85462893 48.18300458 119.86628156 46.72250366 119.87261391 C27.39156605 119.96474791 9.01250012 123.11791364 -6.5625 135.375 C-7.38621094 135.97957031 -8.20992187 136.58414063 -9.05859375 137.20703125 C-16.471441 143.62533113 -21.64330587 153.12063629 -24.5625 162.375 C-24.96079765 163.63300667 -24.96079765 163.63300667 -25.36714172 164.91642761 C-28.32708328 175.81003577 -27.94251072 186.65767569 -27.85546875 197.86328125 C-27.8510482 199.77616106 -27.84799365 201.68904453 -27.84631348 203.60192871 C-27.83069722 210.63050845 -27.78881372 217.65901009 -27.75 224.6875 C-27.688125 240.424375 -27.62625 256.16125 -27.5625 272.375 C32.8275 272.87 32.8275 272.87 94.4375 273.375 C94.4375 283.4994424 94.4375 283.4994424 93.64648438 288.4465332 C93.47182144 289.56113419 93.29715851 290.67573517 93.11720276 291.82411194 C92.92383835 293.01266281 92.73047394 294.20121368 92.53125 295.42578125 C92.22382103 297.37061287 91.91639315 299.31544465 91.60900974 301.26028347 C91.28182788 303.32177823 90.95125032 305.38270136 90.61959839 307.44348145 C89.9313537 311.72008067 89.25197611 315.99805633 88.57446289 320.27636719 C88.34469637 321.72677859 88.11491421 323.17718752 87.88511658 324.62759399 C87.77088789 325.34859913 87.6566592 326.06960426 87.53896904 326.81245804 C87.19027763 329.0110224 86.84063303 331.2094333 86.49073792 333.4078064 C84.9739835 342.94332455 83.48703148 352.48291296 82.02734375 362.02734375 C81.84245392 363.23606644 81.65756409 364.44478912 81.46707153 365.69013977 C80.76375252 370.29348377 80.06167186 374.89701312 79.36181641 379.50088501 C78.88730425 382.62062237 78.41060986 385.7400197 77.93359375 388.859375 C77.79549789 389.77303329 77.65740204 390.68669159 77.51512146 391.6280365 C77.38694534 392.46460281 77.25876923 393.30116913 77.12670898 394.16308594 C77.0169725 394.8849408 76.90723602 395.60679565 76.79417419 396.3505249 C76.43701536 398.37775079 75.93674692 400.37801233 75.4375 402.375 C41.1175 402.375 6.7975 402.375 -28.5625 402.375 C-28.8925 507.645 -29.2225 612.915 -29.5625 721.375 C-75.4325 721.375 -121.3025 721.375 -168.5625 721.375 C-168.8925 616.435 -169.2225 511.495 -169.5625 403.375 C-206.8525 403.045 -244.1425 402.715 -282.5625 402.375 C-282.5625 359.805 -282.5625 317.235 -282.5625 273.375 C-245.2725 273.375 -207.9825 273.375 -169.5625 273.375 C-169.71992671 237.67284742 -169.71992671 237.67284742 -169.92285156 201.97094727 C-170.12258145 149.41115269 -166.97474087 96.44838586 -131.5625 54.375 C-130.45261719 53.05435547 -130.45261719 53.05435547 -129.3203125 51.70703125 C-103.91715904 22.55216651 -70.78790095 9.05568835 -33.5625 2.375 C-32.64106201 2.19404785 -31.71962402 2.0130957 -30.77026367 1.82666016 C-20.53725379 -0.0070243 -10.36161665 -0.01789552 0 0 Z " fill="#F2F2F2" transform="translate(1065.5625,637.625)"/>
<path d="M0 0 C1.23375366 0.00149048 2.46750732 0.00298096 3.73864746 0.0045166 C24.32876292 0.04897623 44.61653007 0.89913698 65.0625 3.3125 C66.3009668 3.45171875 67.53943359 3.5909375 68.81542969 3.734375 C121.1424233 9.73842845 172.83366716 24.23970839 221.0625 45.3125 C222.12549316 45.77591797 223.18848633 46.23933594 224.28369141 46.71679688 C274.86715981 68.97443892 323.13519097 98.9892018 363.953125 136.3828125 C365.90039502 138.16420396 367.87774471 139.9000977 369.875 141.625 C382.99262464 153.08980393 396.14687696 165.04300903 407.40234375 178.37109375 C409.51952462 180.84694997 411.73031829 183.22911268 413.9375 185.625 C418.85827302 191.0274752 423.4895049 196.61487581 428.0625 202.3125 C428.98639449 203.44448786 429.9109029 204.57597487 430.8359375 205.70703125 C468.63512055 252.14261788 498.82847658 306.01490262 519.0625 362.3125 C519.72548096 364.14965576 519.72548096 364.14965576 520.40185547 366.02392578 C542.32496267 427.21815593 553.56941524 493.26643038 552.0625 558.3125 C552.04461426 559.20678711 552.02672852 560.10107422 552.00830078 561.02246094 C550.15264747 645.13638105 529.76388903 726.08261452 492.0625 801.3125 C491.5454248 802.34922852 491.02834961 803.38595703 490.49560547 804.45410156 C473.57482785 838.20749905 452.48539944 870.48051075 428.0625 899.3125 C427.17015282 900.37855475 426.27824952 901.44498115 425.38671875 902.51171875 C420.48196237 908.36314173 415.50485543 914.13438438 410.36108398 919.77832031 C408.92843999 921.35780461 407.50351105 922.94436444 406.09057617 924.54150391 C400.46012488 930.89363579 394.58081339 936.94899177 388.5690918 942.9362793 C386.99475845 944.5052236 385.42588411 946.07948558 383.85742188 947.65429688 C378.43106454 953.08460633 372.91644455 958.34112335 367.0625 963.3125 C365.87066452 964.35740353 364.68054455 965.40426718 363.4921875 966.453125 C355.78740375 973.2075484 347.95681433 979.73302322 339.82080078 985.96191406 C338.09959539 987.28400629 336.39142412 988.62163636 334.68359375 989.9609375 C306.2608761 1011.99824527 275.14544719 1030.20858953 243.0625 1046.3125 C241.58330078 1047.05910889 241.58330078 1047.05910889 240.07421875 1047.82080078 C168.32750841 1083.82911044 87.91990247 1100.34577074 8.0625 1102.3125 C6.96832764 1102.33957031 6.96832764 1102.33957031 5.85205078 1102.3671875 C1.58597344 1102.45585629 -2.67242672 1102.41130849 -6.9375 1102.3125 C-7.83178711 1102.29461426 -8.72607422 1102.27672852 -9.64746094 1102.25830078 C-92.96716316 1100.42016886 -173.77190544 1080.20895373 -374.25439453 954.99487305 C-375.96881059 953.28120304 -377.75376532 951.71361252 -379.59765625 950.140625 C-384.08862546 946.23518852 -388.30436037 942.09342138 -392.5 937.875 C-393.21607422 937.16279297 -393.93214844 936.45058594 -394.66992188 935.71679688 C-398.73251859 931.6468069 -402.61775636 927.47921142 -406.37182617 923.12329102 C-408.46675257 920.70038923 -410.6391897 918.3525901 -412.8125 916 C-417.73327302 910.5975248 -422.3645049 905.01012419 -426.9375 899.3125 C-427.86139449 898.18051214 -428.7859029 897.04902513 -429.7109375 895.91796875 C-451.3409582 869.35062163 -469.61173187 840.3850381 -485.9375 810.3125 C-486.40027344 809.46751953 -486.86304688 808.62253906 -487.33984375 807.75195312 C-522.80628596 742.73014241 -543.08819263 669.00304017 -548.9375 595.3125 C-549.07889404 593.61818848 -549.07889404 593.61818848 -549.22314453 591.88964844 C-550.20069049 578.63069771 -550.18110272 565.35159907 -550.1875 552.0625 C-550.18817474 550.79961151 -550.18884949 549.53672302 -550.18954468 548.23556519 C-550.17195854 527.44267183 -549.46737641 506.95174565 -546.9375 486.3125 C-546.855 485.62397949 -546.7725 484.93545898 -546.6875 484.22607422 C-536.7790207 401.92853171 -508.23399825 322.27879364 -419.35107422 193.96875 C-417.90100213 192.26973635 -416.46690966 190.55821849 -415.03515625 188.84375 C-409.42674377 182.16231122 -403.61264372 175.83587335 -397.38256836 169.72802734 C-394.6614687 167.0570042 -392.04925763 164.38734194 -389.625 161.4375 C-387.06045435 158.32340885 -384.14378945 155.80298589 -381.07421875 153.1953125 C-378.76001743 151.15610768 -376.60154323 149.01006542 -374.4375 146.8125 C-370.42977442 142.76394869 -366.26884562 139.00858159 -361.9375 135.3125 C-360.88481352 134.39652605 -359.83278457 133.47979612 -358.78125 132.5625 C-351.0498282 125.84108779 -343.14371101 119.4457433 -334.9375 113.3125 C-334.23496094 112.78398438 -333.53242187 112.25546875 -332.80859375 111.7109375 C-308.13628905 93.1749693 -282.27150202 76.65032894 -254.9375 62.3125 C-253.91398437 61.77012695 -252.89046875 61.22775391 -251.8359375 60.66894531 C-196.14413859 31.3155732 -135.19901039 13.05837651 -72.9375 4.5 C-72.22713593 4.40063141 -71.51677185 4.30126282 -70.78488159 4.19888306 C-47.28128539 0.95553382 -23.70707431 -0.07161286 0 0 Z M-62.93774414 45.05010986 C-65.92941649 45.44265044 -68.9259741 45.79372241 -71.921875 46.15234375 C-105.95262837 50.47269899 -143.49541019 58.40615651 -174.9375 72.3125 C-177.41296395 73.24180038 -179.89075393 74.15766486 -182.375 75.0625 C-190.715633 78.1483682 -198.83328152 81.65685146 -206.9375 85.3125 C-207.96746094 85.77140625 -208.99742187 86.2303125 -210.05859375 86.703125 C-213.37017197 88.20173257 -216.65899173 89.74327146 -219.9375 91.3125 C-221.08484619 91.86067383 -221.08484619 91.86067383 -222.25537109 92.41992188 C-254.38534459 107.87594145 -285.14135151 126.93230209 -312.9375 149.3125 C-314.33325181 150.42197757 -315.72908724 151.53134994 -317.125 152.640625 C-324.14893719 158.25635797 -330.97018545 164.01449662 -337.5703125 170.125 C-339.62060095 172.019656 -341.69940274 173.86374801 -343.8125 175.6875 C-357.59054373 187.73631557 -370.29943712 200.6160314 -382.30712891 214.43652344 C-383.768072 216.1175487 -385.24108722 217.78681305 -386.71875 219.453125 C-395.37447086 229.30567848 -403.18461545 239.74262932 -410.9375 250.3125 C-411.39866211 250.93592285 -411.85982422 251.5593457 -412.33496094 252.20166016 C-426.4347494 271.28205306 -438.67471185 291.45110074 -449.9375 312.3125 C-450.42653809 313.21613281 -450.91557617 314.11976563 -451.41943359 315.05078125 C-458.01207178 327.27821168 -464.35718989 339.49276231 -468.94140625 352.63671875 C-469.9764105 355.41702429 -471.17433007 358.06624383 -472.4375 360.75 C-474.67298259 365.54910942 -476.36937557 370.40272836 -477.98046875 375.44140625 C-478.82136576 377.96409727 -479.76899141 380.36905808 -480.8125 382.8125 C-488.66109176 402.14385635 -492.91179658 423.12112765 -497.9375 443.3125 C-498.18371094 444.27671875 -498.42992187 445.2409375 -498.68359375 446.234375 C-500.89864673 455.2948177 -502.26689273 464.42188922 -503.55810547 473.64892578 C-503.92815583 476.2468984 -504.32270047 478.84007631 -504.72265625 481.43359375 C-515.50768699 552.93235963 -511.15524184 633.32841099 -487.0859375 701.93359375 C-485.89841981 705.42748083 -484.90603149 708.93967824 -483.9375 712.5 C-482.44440989 717.82061477 -480.59823519 722.78744132 -478.390625 727.84765625 C-477.29091098 730.46982381 -476.27092515 733.07757877 -475.296875 735.74609375 C-453.76806387 794.62567432 -419.30889662 849.48834505 -376.640625 895.36328125 C-374.61702903 897.54523577 -372.66948283 899.78174087 -370.73046875 902.0390625 C-366.373451 907.03667898 -361.69703738 911.69910457 -357 916.375 C-355.71706055 917.66374023 -355.71706055 917.66374023 -354.40820312 918.97851562 C-349.95081557 923.4291032 -345.42996808 927.7356548 -340.65112305 931.83959961 C-338.49067021 933.696561 -336.40510283 935.62969593 -334.3125 937.5625 C-328.68024429 942.64358696 -322.73500064 947.27192043 -316.73876953 951.90966797 C-314.99037896 953.27131777 -313.25666696 954.64940058 -311.52734375 956.03515625 C-265.72830965 992.66778424 -212.50894007 1019.98749885 -156.9375 1038.3125 C-156.10283203 1038.58932617 -155.26816406 1038.86615234 -154.40820312 1039.15136719 C-142.70646662 1043.01005436 -130.91752262 1046.42905616 -118.9375 1049.3125 C-117.95265625 1049.5496875 -116.9678125 1049.786875 -115.953125 1050.03125 C-101.6652967 1053.40965275 -87.3424117 1056.01715129 -72.8125 1058.0625 C-72.11037384 1058.16336914 -71.40824768 1058.26423828 -70.68484497 1058.36816406 C-46.42181284 1061.81476089 -22.10855425 1062.7519729 2.375 1062.75 C3.07575401 1062.75091141 3.77650803 1062.75182281 4.49849701 1062.75276184 C29.55801119 1062.7817959 54.16491055 1061.35330836 78.97406006 1057.62561035 C80.87549431 1057.34053692 82.77873155 1057.06755558 84.68212891 1056.79589844 C91.19511537 1055.85418957 97.6278173 1054.68794539 104.0625 1053.3125 C105.17415527 1053.07837402 106.28581055 1052.84424805 107.43115234 1052.60302734 C177.93883488 1037.53001385 246.37855067 1007.77661703 304.0625 964.3125 C304.64499512 963.87631348 305.22749023 963.44012695 305.82763672 962.99072266 C318.10880325 953.77176095 330.19379122 944.19356771 341.4375 933.7265625 C342.8257813 932.44983952 344.22024657 931.17855421 345.65795898 929.95776367 C352.18980277 924.40279013 358.1959053 918.33002541 364.24438477 912.26098633 C366.12079475 910.37921726 368.00248969 908.50285262 369.88476562 906.62695312 C375.82246367 900.69284361 381.66599624 894.75085123 387.0625 888.3125 C387.93896388 887.30239487 388.81651549 886.29323221 389.6953125 885.28515625 C397.17070099 876.5560584 404.17346884 867.50926053 411.0625 858.3125 C411.55282715 857.65958984 412.0431543 857.00667969 412.54833984 856.33398438 C449.27477577 807.29862021 476.0189345 752.01109011 493.18261719 693.30957031 C493.92540271 690.77948289 494.69315379 688.25987727 495.4765625 685.7421875 C503.28874699 660.02899273 507.09736627 632.94785039 510.0625 606.3125 C510.23023926 604.87366455 510.23023926 604.87366455 510.40136719 603.40576172 C511.95355522 590.07016513 512.71326741 576.73170518 513.0625 563.3125 C513.08586426 562.42320801 513.10922852 561.53391602 513.13330078 560.61767578 C514.99872738 475.70157591 493.97071302 392.94535115 456.0625 317.3125 C455.60488281 316.3946875 455.14726563 315.476875 454.67578125 314.53125 C438.46295542 282.20536958 417.22980047 252.0224084 394.0625 224.3125 C393.40991211 223.53036133 393.40991211 223.53036133 392.74414062 222.73242188 C381.80730212 209.66683342 370.14280051 197.32332219 358.125 185.25 C357.43962158 184.55994873 356.75424316 183.86989746 356.0480957 183.15893555 C351.54857181 178.67360057 346.87542214 174.45711317 342.0625 170.3125 C340.90606692 169.29074095 339.75107067 168.26735294 338.59765625 167.2421875 C330.12185901 159.76218727 321.37235902 152.75493303 312.31445312 145.99365234 C310.78456555 144.85154417 309.25730799 143.70590627 307.73242188 142.55712891 C296.79974022 134.3216253 285.69963989 126.52061767 274.0625 119.3125 C273.30420898 118.84134766 272.54591797 118.37019531 271.76464844 117.88476562 C215.11862355 82.86382246 154.07960482 60.40544775 88.7671814 48.54968262 C84.77428401 47.8235277 80.80344993 47.05407952 76.83984375 46.1796875 C70.57439219 44.90643914 64.18786185 44.46789945 57.82543945 43.93481445 C55.6596838 43.75291308 53.49490277 43.56177228 51.33007812 43.36914062 C33.31917343 41.79544904 15.32912171 41.04655781 -2.75 41 C-4.23410873 40.99607239 -4.23410873 40.99607239 -5.74819946 40.99206543 C-25.01072949 40.98667208 -43.85901639 42.50053847 -62.93774414 45.05010986 Z " fill="#E2E2E2" transform="translate(997.9375,447.6875)"/>
</svg>
